<svg width="32" height="32" viewBox="0 0 32 32" fill="none" xmlns="http://www.w3.org/2000/svg">
<g clip-path="url(#clip0)">
<path d="M16.0588 31.3265C24.5044 31.3265 31.3509 24.48 31.3509 16.0344C31.3509 7.58872 24.5044 0.742188 16.0588 0.742188C7.61314 0.742188 0.766602 7.58872 0.766602 16.0344C0.766602 24.48 7.61314 31.3265 16.0588 31.3265Z" fill="#F0F0F0"/>
<path d="M16.0599 0.742676C9.99719 0.742676 4.75866 4.27093 2.28516 9.3861H29.8347C27.3612 4.27093 22.1226 0.742676 16.0599 0.742676Z" fill="#338AF3"/>
<path d="M16.059 31.327C22.1216 31.327 27.3602 27.7988 29.8337 22.6836H2.28418C4.75769 27.7988 9.99621 31.327 16.059 31.327Z" fill="#338AF3"/>
<path d="M20.7887 16.1121L18.9211 16.9906L19.9156 18.7993L17.8876 18.4114L17.6306 20.46L16.2181 18.9533L14.8055 20.46L14.5486 18.4114L12.5205 18.7993L13.515 16.9906L11.6475 16.1121L13.5151 15.2336L12.5205 13.4249L14.5485 13.8128L14.8055 11.7642L16.2181 13.2709L17.6307 11.7642L17.8876 13.8128L19.9157 13.4249L18.9212 15.2336L20.7887 16.1121Z" fill="#FFDA44"/>
</g>
<defs>
<clipPath id="clip0">
<rect width="30.5843" height="30.5843" fill="white" transform="translate(0.766602 0.742188)"/>
</clipPath>
</defs>
</svg>
