<svg width="428" height="80" viewBox="0 0 428 80" fill="none" xmlns="http://www.w3.org/2000/svg">
<path d="M52.7543 1.89143L5.52043 35.1828C2.80151 37.0991 2.75385 41.1142 5.42651 43.0945L52.7244 78.1406C53.5652 78.7636 54.584 79.0999 55.6305 79.0999H369.893C370.914 79.0999 371.909 78.78 372.738 78.1852L421.602 43.1403C424.356 41.1647 424.308 37.0518 421.508 35.1414L372.707 1.84897C371.896 1.29586 370.938 1 369.956 1H55.5664C54.5596 1 53.5773 1.31137 52.7543 1.89143Z" fill="#0E0E0E" stroke="#07F0FF" stroke-width="1"/>
<path d="M73.3672 42.3042V29.9995H77.4688V42.3042C77.4688 44.1271 78.3802 45.0386 80.2031 45.0386H81.5703C83.3932 45.0386 84.3047 44.1271 84.3047 42.3042V29.9995H88.4062V42.3042C88.4062 46.8615 86.1276 49.1401 81.5703 49.1401H80.2031C75.6458 49.1401 73.3672 46.8615 73.3672 42.3042ZM95.2422 41.7573V49.1401H91.1406V29.9995L100.711 41.4839V34.1011H104.812V53.2417L95.2422 41.7573ZM119.852 34.1011V38.2026H111.648V39.5698H119.852V43.6714H111.648V45.0386H117.117V49.1401H107.547V34.1011H119.852ZM130.434 38.2026V51.8745L126.332 47.7729V38.2026H122.23V34.1011H134.535V38.2026H130.434ZM149.328 34.1011V38.2026H141.125V39.5698H149.328V43.6714H141.125V45.0386H146.594V49.1401H137.023V34.1011H149.328ZM165.475 49.1401L163 42.3042L160.525 49.1401H156.246L163 29.9995L169.754 49.1401H165.475ZM176.672 34.1011H180.773V45.0386H188.977V49.1401H176.672V34.1011ZM199.6 49.1401L197.125 42.3042L194.65 49.1401H190.371L197.125 29.9995L203.879 49.1401H199.6ZM214.898 38.2026V49.1401H210.797V34.1011H217.633C222.19 34.1011 224.469 36.1519 224.469 40.2534C224.469 42.7326 223.803 44.4644 222.473 45.4487L224.469 49.1401H220.094L216.389 42.3042H217.633C219.456 42.3042 220.367 41.6206 220.367 40.2534C220.367 38.8862 219.456 38.2026 217.633 38.2026H214.898ZM239.508 34.1011V38.2026H231.305V39.5698H239.508V43.6714H231.305V45.0386H236.773V49.1401H227.203V34.1011H239.508ZM250.186 34.1011H254.465L247.711 53.2417L240.957 34.1011H245.236L247.711 40.937L250.186 34.1011ZM261.902 34.1011C266.46 34.1011 268.738 36.3797 268.738 40.937V42.3042C268.738 46.8615 266.46 49.1401 261.902 49.1401C257.345 49.1401 255.066 46.8615 255.066 42.3042V40.937C255.066 36.3797 257.345 34.1011 261.902 34.1011ZM264.637 40.937C264.637 39.1141 263.725 38.2026 261.902 38.2026C260.079 38.2026 259.168 39.1141 259.168 40.937V42.3042C259.168 44.1271 260.079 45.0386 261.902 45.0386C263.725 45.0386 264.637 44.1271 264.637 42.3042V40.937ZM271.473 34.1011H275.574V45.0386H283.777V49.1401H271.473V34.1011ZM284.953 42.3042V34.1011H289.055V42.3042C289.055 44.1271 289.966 45.0386 291.789 45.0386C293.612 45.0386 294.523 44.1271 294.523 42.3042V34.1011H298.625V42.3042C298.625 46.8615 296.346 49.1401 291.789 49.1401C287.232 49.1401 284.953 46.8615 284.953 42.3042ZM308.195 45.0386H313.664V49.1401H308.195C303.638 49.1401 301.359 46.8615 301.359 42.3042V40.937C301.359 36.3797 303.638 34.1011 308.195 34.1011H313.664V38.2026H308.195C306.372 38.2026 305.461 39.1141 305.461 40.937V42.3042C305.461 44.1271 306.372 45.0386 308.195 45.0386ZM320.5 49.1401H316.398V34.1011H320.5V49.1401ZM330.07 34.1011C334.628 34.1011 336.906 36.3797 336.906 40.937V42.3042C336.906 46.8615 334.628 49.1401 330.07 49.1401C325.513 49.1401 323.234 46.8615 323.234 42.3042V40.937C323.234 36.3797 325.513 34.1011 330.07 34.1011ZM332.805 40.937C332.805 39.1141 331.893 38.2026 330.07 38.2026C328.247 38.2026 327.336 39.1141 327.336 40.937V42.3042C327.336 44.1271 328.247 45.0386 330.07 45.0386C331.893 45.0386 332.805 44.1271 332.805 42.3042V40.937ZM343.742 41.7573V49.1401H339.641V29.9995L349.211 41.4839V34.1011H353.312V53.2417L343.742 41.7573Z" fill="#FFFCFF"/>
<path d="M73.3672 29.9995V29.0952H72.4628V29.9995H73.3672ZM77.4688 29.9995H78.3731V29.0952H77.4688V29.9995ZM84.3047 29.9995V29.0952H83.4003V29.9995H84.3047ZM88.4062 29.9995H89.3106V29.0952H88.4062V29.9995ZM74.2715 42.3042V29.9995H72.4628V42.3042H74.2715ZM73.3672 30.9039H77.4688V29.0952H73.3672V30.9039ZM76.5644 29.9995V42.3042H78.3731V29.9995H76.5644ZM76.5644 42.3042C76.5644 43.3551 76.8277 44.3093 77.5129 44.9945C78.198 45.6796 79.1523 45.9429 80.2031 45.9429V44.1342C79.4311 44.1342 79.0181 43.9418 78.7918 43.7155C78.5655 43.4892 78.3731 43.0763 78.3731 42.3042H76.5644ZM80.2031 45.9429H81.5703V44.1342H80.2031V45.9429ZM81.5703 45.9429C82.6212 45.9429 83.5754 45.6796 84.2606 44.9945C84.9457 44.3093 85.209 43.3551 85.209 42.3042H83.4003C83.4003 43.0763 83.2079 43.4892 82.9816 43.7155C82.7553 43.9418 82.3424 44.1342 81.5703 44.1342V45.9429ZM85.209 42.3042V29.9995H83.4003V42.3042H85.209ZM84.3047 30.9039H88.4062V29.0952H84.3047V30.9039ZM87.5019 29.9995V42.3042H89.3106V29.9995H87.5019ZM87.5019 42.3042C87.5019 44.4434 86.9677 45.8818 86.0578 46.7917C85.1479 47.7016 83.7096 48.2358 81.5703 48.2358V50.0445C83.9884 50.0445 85.968 49.4394 87.3367 48.0706C88.7055 46.7019 89.3106 44.7222 89.3106 42.3042H87.5019ZM81.5703 48.2358H80.2031V50.0445H81.5703V48.2358ZM80.2031 48.2358C78.0639 48.2358 76.6256 47.7016 75.7157 46.7917C74.8057 45.8818 74.2715 44.4434 74.2715 42.3042H72.4628C72.4628 44.7222 73.068 46.7019 74.4367 48.0706C75.8054 49.4394 77.7851 50.0445 80.2031 50.0445V48.2358ZM95.2422 41.7573L95.9369 41.1784L94.3378 39.2594V41.7573H95.2422ZM95.2422 49.1401V50.0445H96.1465V49.1401H95.2422ZM91.1406 49.1401H90.2363V50.0445H91.1406V49.1401ZM91.1406 29.9995L91.8354 29.4206L90.2363 27.5016V29.9995H91.1406ZM100.711 41.4839L100.016 42.0628L101.615 43.9818V41.4839H100.711ZM100.711 34.1011V33.1967H99.8066V34.1011H100.711ZM104.812 34.1011H105.717V33.1967H104.812V34.1011ZM104.812 53.2417L104.118 53.8207L105.717 55.7396V53.2417H104.812ZM94.3378 41.7573V49.1401H96.1465V41.7573H94.3378ZM95.2422 48.2358H91.1406V50.0445H95.2422V48.2358ZM92.045 49.1401V29.9995H90.2363V49.1401H92.045ZM90.4459 30.5785L100.016 42.0628L101.406 40.9049L91.8354 29.4206L90.4459 30.5785ZM101.615 41.4839V34.1011H99.8066V41.4839H101.615ZM100.711 35.0054H104.812V33.1967H100.711V35.0054ZM103.908 34.1011V53.2417H105.717V34.1011H103.908ZM105.507 52.6627L95.9369 41.1784L94.5474 42.3363L104.118 53.8207L105.507 52.6627ZM119.852 34.1011H120.756V33.1967H119.852V34.1011ZM119.852 38.2026V39.107H120.756V38.2026H119.852ZM111.648 38.2026V37.2983H110.744V38.2026H111.648ZM111.648 39.5698H110.744V40.4742H111.648V39.5698ZM119.852 39.5698H120.756V38.6655H119.852V39.5698ZM119.852 43.6714V44.5757H120.756V43.6714H119.852ZM111.648 43.6714V42.767H110.744V43.6714H111.648ZM111.648 45.0386H110.744V45.9429H111.648V45.0386ZM117.117 45.0386H118.022V44.1342H117.117V45.0386ZM117.117 49.1401V50.0445H118.022V49.1401H117.117ZM107.547 49.1401H106.643V50.0445H107.547V49.1401ZM107.547 34.1011V33.1967H106.643V34.1011H107.547ZM118.947 34.1011V38.2026H120.756V34.1011H118.947ZM119.852 37.2983H111.648V39.107H119.852V37.2983ZM110.744 38.2026V39.5698H112.553V38.2026H110.744ZM111.648 40.4742H119.852V38.6655H111.648V40.4742ZM118.947 39.5698V43.6714H120.756V39.5698H118.947ZM119.852 42.767H111.648V44.5757H119.852V42.767ZM110.744 43.6714V45.0386H112.553V43.6714H110.744ZM111.648 45.9429H117.117V44.1342H111.648V45.9429ZM116.213 45.0386V49.1401H118.022V45.0386H116.213ZM117.117 48.2358H107.547V50.0445H117.117V48.2358ZM108.451 49.1401V34.1011H106.643V49.1401H108.451ZM107.547 35.0054H119.852V33.1967H107.547V35.0054ZM130.434 38.2026V37.2983H129.529V38.2026H130.434ZM130.434 51.8745L129.794 52.514L131.338 54.0578V51.8745H130.434ZM126.332 47.7729H125.428V48.1475L125.693 48.4124L126.332 47.7729ZM126.332 38.2026H127.236V37.2983H126.332V38.2026ZM122.23 38.2026H121.326V39.107H122.23V38.2026ZM122.23 34.1011V33.1967H121.326V34.1011H122.23ZM134.535 34.1011H135.44V33.1967H134.535V34.1011ZM134.535 38.2026V39.107H135.44V38.2026H134.535ZM129.529 38.2026V51.8745H131.338V38.2026H129.529ZM131.073 51.235L126.972 47.1335L125.693 48.4124L129.794 52.514L131.073 51.235ZM127.236 47.7729V38.2026H125.428V47.7729H127.236ZM126.332 37.2983H122.23V39.107H126.332V37.2983ZM123.135 38.2026V34.1011H121.326V38.2026H123.135ZM122.23 35.0054H134.535V33.1967H122.23V35.0054ZM133.631 34.1011V38.2026H135.44V34.1011H133.631ZM134.535 37.2983H130.434V39.107H134.535V37.2983ZM149.328 34.1011H150.232V33.1967H149.328V34.1011ZM149.328 38.2026V39.107H150.232V38.2026H149.328ZM141.125 38.2026V37.2983H140.221V38.2026H141.125ZM141.125 39.5698H140.221V40.4742H141.125V39.5698ZM149.328 39.5698H150.232V38.6655H149.328V39.5698ZM149.328 43.6714V44.5757H150.232V43.6714H149.328ZM141.125 43.6714V42.767H140.221V43.6714H141.125ZM141.125 45.0386H140.221V45.9429H141.125V45.0386ZM146.594 45.0386H147.498V44.1342H146.594V45.0386ZM146.594 49.1401V50.0445H147.498V49.1401H146.594ZM137.023 49.1401H136.119V50.0445H137.023V49.1401ZM137.023 34.1011V33.1967H136.119V34.1011H137.023ZM148.424 34.1011V38.2026H150.232V34.1011H148.424ZM149.328 37.2983H141.125V39.107H149.328V37.2983ZM140.221 38.2026V39.5698H142.029V38.2026H140.221ZM141.125 40.4742H149.328V38.6655H141.125V40.4742ZM148.424 39.5698V43.6714H150.232V39.5698H148.424ZM149.328 42.767H141.125V44.5757H149.328V42.767ZM140.221 43.6714V45.0386H142.029V43.6714H140.221ZM141.125 45.9429H146.594V44.1342H141.125V45.9429ZM145.689 45.0386V49.1401H147.498V45.0386H145.689ZM146.594 48.2358H137.023V50.0445H146.594V48.2358ZM137.928 49.1401V34.1011H136.119V49.1401H137.928ZM137.023 35.0054H149.328V33.1967H137.023V35.0054ZM165.475 49.1401L164.624 49.448L164.84 50.0445H165.475V49.1401ZM163 42.3042L163.85 41.9964L163 39.6473L162.15 41.9964L163 42.3042ZM160.525 49.1401V50.0445H161.16L161.376 49.448L160.525 49.1401ZM156.246 49.1401L155.393 48.8392L154.968 50.0445H156.246V49.1401ZM163 29.9995L163.853 29.6986L163 27.2817L162.147 29.6986L163 29.9995ZM169.754 49.1401V50.0445H171.032L170.607 48.8392L169.754 49.1401ZM166.325 48.8323L163.85 41.9964L162.15 42.612L164.624 49.448L166.325 48.8323ZM162.15 41.9964L159.675 48.8323L161.376 49.448L163.85 42.612L162.15 41.9964ZM160.525 48.2358H156.246V50.0445H160.525V48.2358ZM157.099 49.4411L163.853 30.3004L162.147 29.6986L155.393 48.8392L157.099 49.4411ZM162.147 30.3004L168.901 49.4411L170.607 48.8392L163.853 29.6986L162.147 30.3004ZM169.754 48.2358H165.475V50.0445H169.754V48.2358ZM176.672 34.1011V33.1967H175.768V34.1011H176.672ZM180.773 34.1011H181.678V33.1967H180.773V34.1011ZM180.773 45.0386H179.869V45.9429H180.773V45.0386ZM188.977 45.0386H189.881V44.1342H188.977V45.0386ZM188.977 49.1401V50.0445H189.881V49.1401H188.977ZM176.672 49.1401H175.768V50.0445H176.672V49.1401ZM176.672 35.0054H180.773V33.1967H176.672V35.0054ZM179.869 34.1011V45.0386H181.678V34.1011H179.869ZM180.773 45.9429H188.977V44.1342H180.773V45.9429ZM188.072 45.0386V49.1401H189.881V45.0386H188.072ZM188.977 48.2358H176.672V50.0445H188.977V48.2358ZM177.576 49.1401V34.1011H175.768V49.1401H177.576ZM199.6 49.1401L198.749 49.448L198.965 50.0445H199.6V49.1401ZM197.125 42.3042L197.975 41.9964L197.125 39.6473L196.275 41.9964L197.125 42.3042ZM194.65 49.1401V50.0445H195.285L195.501 49.448L194.65 49.1401ZM190.371 49.1401L189.518 48.8392L189.093 50.0445H190.371V49.1401ZM197.125 29.9995L197.978 29.6986L197.125 27.2817L196.272 29.6986L197.125 29.9995ZM203.879 49.1401V50.0445H205.157L204.732 48.8392L203.879 49.1401ZM200.45 48.8323L197.975 41.9964L196.275 42.612L198.749 49.448L200.45 48.8323ZM196.275 41.9964L193.8 48.8323L195.501 49.448L197.975 42.612L196.275 41.9964ZM194.65 48.2358H190.371V50.0445H194.65V48.2358ZM191.224 49.4411L197.978 30.3004L196.272 29.6986L189.518 48.8392L191.224 49.4411ZM196.272 30.3004L203.026 49.4411L204.732 48.8392L197.978 29.6986L196.272 30.3004ZM203.879 48.2358H199.6V50.0445H203.879V48.2358ZM214.898 38.2026V37.2983H213.994V38.2026H214.898ZM214.898 49.1401V50.0445H215.803V49.1401H214.898ZM210.797 49.1401H209.893V50.0445H210.797V49.1401ZM210.797 34.1011V33.1967H209.893V34.1011H210.797ZM222.473 45.4487L221.935 44.7217L221.304 45.1885L221.677 45.8789L222.473 45.4487ZM224.469 49.1401V50.0445H225.986L225.264 48.71L224.469 49.1401ZM220.094 49.1401L219.299 49.5711L219.555 50.0445H220.094V49.1401ZM216.389 42.3042V41.3998H214.87L215.594 42.7351L216.389 42.3042ZM213.994 38.2026V49.1401H215.803V38.2026H213.994ZM214.898 48.2358H210.797V50.0445H214.898V48.2358ZM211.701 49.1401V34.1011H209.893V49.1401H211.701ZM210.797 35.0054H217.633V33.1967H210.797V35.0054ZM217.633 35.0054C219.794 35.0054 221.246 35.4938 222.155 36.3114C223.045 37.1126 223.564 38.3681 223.564 40.2534H225.373C225.373 38.0372 224.753 36.2165 223.365 34.967C221.995 33.7337 220.029 33.1967 217.633 33.1967V35.0054ZM223.564 40.2534C223.564 42.5942 222.937 43.9801 221.935 44.7217L223.01 46.1758C224.669 44.9486 225.373 42.8709 225.373 40.2534H223.564ZM221.677 45.8789L223.673 49.5703L225.264 48.71L223.268 45.0186L221.677 45.8789ZM224.469 48.2358H220.094V50.0445H224.469V48.2358ZM220.889 48.7092L217.184 41.8733L215.594 42.7351L219.299 49.5711L220.889 48.7092ZM216.389 43.2086H217.633V41.3998H216.389V43.2086ZM217.633 43.2086C218.631 43.2086 219.545 43.0259 220.226 42.515C220.956 41.9673 221.272 41.1577 221.272 40.2534H219.463C219.463 40.7164 219.322 40.9321 219.141 41.068C218.911 41.2407 218.457 41.3998 217.633 41.3998V43.2086ZM221.272 40.2534C221.272 39.3492 220.956 38.5395 220.226 37.9918C219.545 37.4809 218.631 37.2983 217.633 37.2983V39.107C218.457 39.107 218.911 39.2662 219.141 39.4388C219.322 39.5748 219.463 39.7905 219.463 40.2534H221.272ZM217.633 37.2983H214.898V39.107H217.633V37.2983ZM239.508 34.1011H240.412V33.1967H239.508V34.1011ZM239.508 38.2026V39.107H240.412V38.2026H239.508ZM231.305 38.2026V37.2983H230.4V38.2026H231.305ZM231.305 39.5698H230.4V40.4742H231.305V39.5698ZM239.508 39.5698H240.412V38.6655H239.508V39.5698ZM239.508 43.6714V44.5757H240.412V43.6714H239.508ZM231.305 43.6714V42.767H230.4V43.6714H231.305ZM231.305 45.0386H230.4V45.9429H231.305V45.0386ZM236.773 45.0386H237.678V44.1342H236.773V45.0386ZM236.773 49.1401V50.0445H237.678V49.1401H236.773ZM227.203 49.1401H226.299V50.0445H227.203V49.1401ZM227.203 34.1011V33.1967H226.299V34.1011H227.203ZM238.603 34.1011V38.2026H240.412V34.1011H238.603ZM239.508 37.2983H231.305V39.107H239.508V37.2983ZM230.4 38.2026V39.5698H232.209V38.2026H230.4ZM231.305 40.4742H239.508V38.6655H231.305V40.4742ZM238.603 39.5698V43.6714H240.412V39.5698H238.603ZM239.508 42.767H231.305V44.5757H239.508V42.767ZM230.4 43.6714V45.0386H232.209V43.6714H230.4ZM231.305 45.9429H236.773V44.1342H231.305V45.9429ZM235.869 45.0386V49.1401H237.678V45.0386H235.869ZM236.773 48.2358H227.203V50.0445H236.773V48.2358ZM228.107 49.1401V34.1011H226.299V49.1401H228.107ZM227.203 35.0054H239.508V33.1967H227.203V35.0054ZM250.186 34.1011V33.1967H249.551L249.335 33.7932L250.186 34.1011ZM254.465 34.1011L255.318 34.402L255.743 33.1967H254.465V34.1011ZM247.711 53.2417L246.858 53.5426L247.711 55.9595L248.564 53.5426L247.711 53.2417ZM240.957 34.1011V33.1967H239.679L240.104 34.402L240.957 34.1011ZM245.236 34.1011L246.087 33.7932L245.871 33.1967H245.236V34.1011ZM247.711 40.937L246.861 41.2448L247.711 43.5939L248.561 41.2448L247.711 40.937ZM250.186 35.0054H254.465V33.1967H250.186V35.0054ZM253.612 33.8001L246.858 52.9408L248.564 53.5426L255.318 34.402L253.612 33.8001ZM248.564 52.9408L241.81 33.8001L240.104 34.402L246.858 53.5426L248.564 52.9408ZM240.957 35.0054H245.236V33.1967H240.957V35.0054ZM244.386 34.4089L246.861 41.2448L248.561 40.6292L246.087 33.7932L244.386 34.4089ZM248.561 41.2448L251.036 34.4089L249.335 33.7932L246.861 40.6292L248.561 41.2448ZM261.902 35.0054C264.042 35.0054 265.48 35.5396 266.39 36.4495C267.3 37.3594 267.834 38.7978 267.834 40.937H269.643C269.643 38.519 269.038 36.5393 267.669 35.1706C266.3 33.8018 264.32 33.1967 261.902 33.1967V35.0054ZM267.834 40.937V42.3042H269.643V40.937H267.834ZM267.834 42.3042C267.834 44.4434 267.3 45.8818 266.39 46.7917C265.48 47.7016 264.042 48.2358 261.902 48.2358V50.0445C264.32 50.0445 266.3 49.4394 267.669 48.0706C269.038 46.7019 269.643 44.7222 269.643 42.3042H267.834ZM261.902 48.2358C259.763 48.2358 258.325 47.7016 257.415 46.7917C256.505 45.8818 255.971 44.4434 255.971 42.3042H254.162C254.162 44.7222 254.767 46.7019 256.136 48.0706C257.505 49.4394 259.484 50.0445 261.902 50.0445V48.2358ZM255.971 42.3042V40.937H254.162V42.3042H255.971ZM255.971 40.937C255.971 38.7978 256.505 37.3594 257.415 36.4495C258.325 35.5396 259.763 35.0054 261.902 35.0054V33.1967C259.484 33.1967 257.505 33.8018 256.136 35.1706C254.767 36.5393 254.162 38.519 254.162 40.937H255.971ZM265.541 40.937C265.541 39.8862 265.278 38.9319 264.593 38.2468C263.907 37.5616 262.953 37.2983 261.902 37.2983V39.107C262.674 39.107 263.087 39.2994 263.314 39.5257C263.54 39.752 263.732 40.165 263.732 40.937H265.541ZM261.902 37.2983C260.851 37.2983 259.897 37.5616 259.212 38.2468C258.527 38.9319 258.264 39.8862 258.264 40.937H260.072C260.072 40.165 260.265 39.752 260.491 39.5257C260.717 39.2994 261.13 39.107 261.902 39.107V37.2983ZM258.264 40.937V42.3042H260.072V40.937H258.264ZM258.264 42.3042C258.264 43.3551 258.527 44.3093 259.212 44.9945C259.897 45.6796 260.851 45.9429 261.902 45.9429V44.1342C261.13 44.1342 260.717 43.9418 260.491 43.7155C260.265 43.4892 260.072 43.0763 260.072 42.3042H258.264ZM261.902 45.9429C262.953 45.9429 263.907 45.6796 264.593 44.9945C265.278 44.3093 265.541 43.3551 265.541 42.3042H263.732C263.732 43.0763 263.54 43.4892 263.314 43.7155C263.087 43.9418 262.674 44.1342 261.902 44.1342V45.9429ZM265.541 42.3042V40.937H263.732V42.3042H265.541ZM271.473 34.1011V33.1967H270.568V34.1011H271.473ZM275.574 34.1011H276.479V33.1967H275.574V34.1011ZM275.574 45.0386H274.67V45.9429H275.574V45.0386ZM283.777 45.0386H284.682V44.1342H283.777V45.0386ZM283.777 49.1401V50.0445H284.682V49.1401H283.777ZM271.473 49.1401H270.568V50.0445H271.473V49.1401ZM271.473 35.0054H275.574V33.1967H271.473V35.0054ZM274.67 34.1011V45.0386H276.479V34.1011H274.67ZM275.574 45.9429H283.777V44.1342H275.574V45.9429ZM282.873 45.0386V49.1401H284.682V45.0386H282.873ZM283.777 48.2358H271.473V50.0445H283.777V48.2358ZM272.377 49.1401V34.1011H270.568V49.1401H272.377ZM284.953 34.1011V33.1967H284.049V34.1011H284.953ZM289.055 34.1011H289.959V33.1967H289.055V34.1011ZM294.523 34.1011V33.1967H293.619V34.1011H294.523ZM298.625 34.1011H299.529V33.1967H298.625V34.1011ZM285.857 42.3042V34.1011H284.049V42.3042H285.857ZM284.953 35.0054H289.055V33.1967H284.953V35.0054ZM288.15 34.1011V42.3042H289.959V34.1011H288.15ZM288.15 42.3042C288.15 43.3551 288.414 44.3093 289.099 44.9945C289.784 45.6796 290.738 45.9429 291.789 45.9429V44.1342C291.017 44.1342 290.604 43.9418 290.378 43.7155C290.151 43.4892 289.959 43.0763 289.959 42.3042H288.15ZM291.789 45.9429C292.84 45.9429 293.794 45.6796 294.479 44.9945C295.164 44.3093 295.428 43.3551 295.428 42.3042H293.619C293.619 43.0763 293.427 43.4892 293.2 43.7155C292.974 43.9418 292.561 44.1342 291.789 44.1342V45.9429ZM295.428 42.3042V34.1011H293.619V42.3042H295.428ZM294.523 35.0054H298.625V33.1967H294.523V35.0054ZM297.721 34.1011V42.3042H299.529V34.1011H297.721ZM297.721 42.3042C297.721 44.4434 297.186 45.8818 296.277 46.7917C295.367 47.7016 293.928 48.2358 291.789 48.2358V50.0445C294.207 50.0445 296.187 49.4394 297.555 48.0706C298.924 46.7019 299.529 44.7222 299.529 42.3042H297.721ZM291.789 48.2358C289.65 48.2358 288.211 47.7016 287.302 46.7917C286.392 45.8818 285.857 44.4434 285.857 42.3042H284.049C284.049 44.7222 284.654 46.7019 286.023 48.0706C287.391 49.4394 289.371 50.0445 291.789 50.0445V48.2358ZM313.664 45.0386H314.568V44.1342H313.664V45.0386ZM313.664 49.1401V50.0445H314.568V49.1401H313.664ZM313.664 34.1011H314.568V33.1967H313.664V34.1011ZM313.664 38.2026V39.107H314.568V38.2026H313.664ZM308.195 45.9429H313.664V44.1342H308.195V45.9429ZM312.76 45.0386V49.1401H314.568V45.0386H312.76ZM313.664 48.2358H308.195V50.0445H313.664V48.2358ZM308.195 48.2358C306.056 48.2358 304.618 47.7016 303.708 46.7917C302.798 45.8818 302.264 44.4434 302.264 42.3042H300.455C300.455 44.7222 301.06 46.7019 302.429 48.0706C303.798 49.4394 305.777 50.0445 308.195 50.0445V48.2358ZM302.264 42.3042V40.937H300.455V42.3042H302.264ZM302.264 40.937C302.264 38.7978 302.798 37.3594 303.708 36.4495C304.618 35.5396 306.056 35.0054 308.195 35.0054V33.1967C305.777 33.1967 303.798 33.8018 302.429 35.1706C301.06 36.5393 300.455 38.519 300.455 40.937H302.264ZM308.195 35.0054H313.664V33.1967H308.195V35.0054ZM312.76 34.1011V38.2026H314.568V34.1011H312.76ZM313.664 37.2983H308.195V39.107H313.664V37.2983ZM308.195 37.2983C307.144 37.2983 306.19 37.5616 305.505 38.2468C304.82 38.9319 304.557 39.8862 304.557 40.937H306.365C306.365 40.165 306.558 39.752 306.784 39.5257C307.01 39.2994 307.423 39.107 308.195 39.107V37.2983ZM304.557 40.937V42.3042H306.365V40.937H304.557ZM304.557 42.3042C304.557 43.3551 304.82 44.3093 305.505 44.9945C306.19 45.6796 307.144 45.9429 308.195 45.9429V44.1342C307.423 44.1342 307.01 43.9418 306.784 43.7155C306.558 43.4892 306.365 43.0763 306.365 42.3042H304.557ZM320.5 49.1401V50.0445H321.404V49.1401H320.5ZM316.398 49.1401H315.494V50.0445H316.398V49.1401ZM316.398 34.1011V33.1967H315.494V34.1011H316.398ZM320.5 34.1011H321.404V33.1967H320.5V34.1011ZM320.5 48.2358H316.398V50.0445H320.5V48.2358ZM317.303 49.1401V34.1011H315.494V49.1401H317.303ZM316.398 35.0054H320.5V33.1967H316.398V35.0054ZM319.596 34.1011V49.1401H321.404V34.1011H319.596ZM330.07 35.0054C332.21 35.0054 333.648 35.5396 334.558 36.4495C335.468 37.3594 336.002 38.7978 336.002 40.937H337.811C337.811 38.519 337.205 36.5393 335.837 35.1706C334.468 33.8018 332.488 33.1967 330.07 33.1967V35.0054ZM336.002 40.937V42.3042H337.811V40.937H336.002ZM336.002 42.3042C336.002 44.4434 335.468 45.8818 334.558 46.7917C333.648 47.7016 332.21 48.2358 330.07 48.2358V50.0445C332.488 50.0445 334.468 49.4394 335.837 48.0706C337.205 46.7019 337.811 44.7222 337.811 42.3042H336.002ZM330.07 48.2358C327.931 48.2358 326.493 47.7016 325.583 46.7917C324.673 45.8818 324.139 44.4434 324.139 42.3042H322.33C322.33 44.7222 322.935 46.7019 324.304 48.0706C325.673 49.4394 327.652 50.0445 330.07 50.0445V48.2358ZM324.139 42.3042V40.937H322.33V42.3042H324.139ZM324.139 40.937C324.139 38.7978 324.673 37.3594 325.583 36.4495C326.493 35.5396 327.931 35.0054 330.07 35.0054V33.1967C327.652 33.1967 325.673 33.8018 324.304 35.1706C322.935 36.5393 322.33 38.519 322.33 40.937H324.139ZM333.709 40.937C333.709 39.8862 333.446 38.9319 332.761 38.2468C332.075 37.5616 331.121 37.2983 330.07 37.2983V39.107C330.842 39.107 331.255 39.2994 331.482 39.5257C331.708 39.752 331.9 40.165 331.9 40.937H333.709ZM330.07 37.2983C329.019 37.2983 328.065 37.5616 327.38 38.2468C326.695 38.9319 326.432 39.8862 326.432 40.937H328.24C328.24 40.165 328.433 39.752 328.659 39.5257C328.885 39.2994 329.298 39.107 330.07 39.107V37.2983ZM326.432 40.937V42.3042H328.24V40.937H326.432ZM326.432 42.3042C326.432 43.3551 326.695 44.3093 327.38 44.9945C328.065 45.6796 329.019 45.9429 330.07 45.9429V44.1342C329.298 44.1342 328.885 43.9418 328.659 43.7155C328.433 43.4892 328.24 43.0763 328.24 42.3042H326.432ZM330.07 45.9429C331.121 45.9429 332.075 45.6796 332.761 44.9945C333.446 44.3093 333.709 43.3551 333.709 42.3042H331.9C331.9 43.0763 331.708 43.4892 331.482 43.7155C331.255 43.9418 330.842 44.1342 330.07 44.1342V45.9429ZM333.709 42.3042V40.937H331.9V42.3042H333.709ZM343.742 41.7573L344.437 41.1784L342.838 39.2594V41.7573H343.742ZM343.742 49.1401V50.0445H344.647V49.1401H343.742ZM339.641 49.1401H338.736V50.0445H339.641V49.1401ZM339.641 29.9995L340.335 29.4206L338.736 27.5016V29.9995H339.641ZM349.211 41.4839L348.516 42.0628L350.115 43.9818V41.4839H349.211ZM349.211 34.1011V33.1967H348.307V34.1011H349.211ZM353.312 34.1011H354.217V33.1967H353.312V34.1011ZM353.312 53.2417L352.618 53.8207L354.217 55.7396V53.2417H353.312ZM342.838 41.7573V49.1401H344.647V41.7573H342.838ZM343.742 48.2358H339.641V50.0445H343.742V48.2358ZM340.545 49.1401V29.9995H338.736V49.1401H340.545ZM338.946 30.5785L348.516 42.0628L349.906 40.9049L340.335 29.4206L338.946 30.5785ZM350.115 41.4839V34.1011H348.307V41.4839H350.115ZM349.211 35.0054H353.312V33.1967H349.211V35.0054ZM352.408 34.1011V53.2417H354.217V34.1011H352.408ZM354.007 52.6627L344.437 41.1784L343.047 42.3363L352.618 53.8207L354.007 52.6627Z" fill="#4930EE"/>
<path d="M80.5421 19.4184L80.1015 26.4573L84.1967 21.8214L80.5421 19.4184Z" fill="#FFFCFF" stroke="#4930EE" stroke-width="0.76723"/>
<path d="M329.166 24.0053L328.725 31.0442L332.821 26.4084L329.166 24.0053Z" fill="#FFFCFF" stroke="#4930EE" stroke-width="0.76723"/>
</svg>
