<svg width="31" height="32" viewBox="0 0 31 32" fill="none" xmlns="http://www.w3.org/2000/svg">
<g clip-path="url(#clip0)">
<path d="M15.3244 31.4266C23.77 31.4266 30.6166 24.5801 30.6166 16.1345C30.6166 7.68882 23.77 0.842285 15.3244 0.842285C6.87876 0.842285 0.0322266 7.68882 0.0322266 16.1345C0.0322266 24.5801 6.87876 31.4266 15.3244 31.4266Z" fill="#F0F0F0"/>
<path d="M30.6166 16.1325C30.6166 24.5781 23.77 31.4247 15.3244 31.4247C6.87882 31.4247 0.0322266 24.5781 0.0322266 16.1325C0.0322266 7.68692 15.3244 16.1325 15.3244 16.1325C15.3244 16.1325 26.8987 16.1325 30.6166 16.1325Z" fill="#D80027"/>
<path d="M0.0322266 16.1345C0.0322266 7.68888 6.87882 0.842285 15.3244 0.842285C15.3244 6.65779 15.3244 16.1345 15.3244 16.1345C15.3244 16.1345 5.35121 16.1345 0.0322266 16.1345Z" fill="#0052B4"/>
<path d="M9.136 6.15967L10.1262 9.20723H13.3306L10.7382 11.0907L11.7284 14.1382L9.136 12.2547L6.54362 14.1382L7.53379 11.0907L4.94141 9.20723H8.14577L9.136 6.15967Z" fill="#F0F0F0"/>
</g>
<defs>
<clipPath id="clip0">
<rect width="30.5843" height="30.5843" fill="white" transform="translate(0.0322266 0.842285)"/>
</clipPath>
</defs>
</svg>
