<svg width="243" height="65" viewBox="0 0 243 65" fill="none" xmlns="http://www.w3.org/2000/svg">
<g clip-path="url(#clip0)">
<path d="M88.7142 23.6803V27.8431C88.7142 32.8248 85.848 35.691 80.2521 35.691C74.6562 35.691 71.79 32.8248 71.79 27.8431V11.6013C71.79 6.61961 74.6562 3.75342 80.2521 3.75342C85.848 3.75342 88.7142 6.61961 88.7142 11.6013V14.604H83.323V11.2601C83.323 9.0081 82.1629 8.18919 80.3886 8.18919C78.6143 8.18919 77.4542 9.0081 77.4542 11.2601V28.0478C77.4542 30.2998 78.6143 31.0505 80.3886 31.0505C82.1629 31.0505 83.323 30.2315 83.323 28.0478V23.612H88.7142V23.6803Z" fill="#8A178C"/>
<path d="M106.049 26.3418H102.706L101.614 35.2134H96.9731L98.065 26.3418H95.54L95.9495 22.8614H98.4745L99.4299 14.7406H96.9049L97.3144 11.2602H99.9076L100.795 4.09473H105.435L104.548 11.2602H107.892L108.779 4.09473H113.42L112.532 11.2602H115.194L114.784 14.7406H112.123L111.168 22.8614H113.829L113.42 26.3418H110.758L109.666 35.2134H105.026L106.049 26.3418ZM103.115 22.9297H106.459L107.414 14.8088H104.07L103.115 22.9297Z" fill="#8A178C"/>
<path d="M134.711 26.2054L138.532 4.16309H146.448V35.2817H141.057V12.9664L137.167 35.2817H131.776L127.545 13.2394V35.2817H122.563V4.16309H130.48L134.711 26.2054Z" fill="#8A178C"/>
<path d="M160.916 17.9481H168.218V22.3839H160.916V35.2135H155.252V4.16309H170.265V8.59886H160.916V17.9481Z" fill="#FFB703"/>
<path d="M183.299 17.2657H191.079V21.7014H183.299V30.8459H193.126V35.2817H177.635V4.16309H193.126V8.59886H183.299V17.2657Z" fill="#FFB703"/>
<path d="M217.761 23.6803V27.8431C217.761 32.8248 214.895 35.691 209.299 35.691C203.703 35.691 200.837 32.8248 200.837 27.8431V11.6013C200.837 6.61961 203.703 3.75342 209.299 3.75342C214.895 3.75342 217.761 6.61961 217.761 11.6013V14.604H212.37V11.2601C212.37 9.0081 211.21 8.18919 209.435 8.18919C207.661 8.18919 206.501 9.0081 206.501 11.2601V28.0478C206.501 30.2998 207.661 31.0505 209.435 31.0505C211.21 31.0505 212.37 30.2315 212.37 28.0478V23.612H217.761V23.6803Z" fill="#8A178C"/>
<path d="M225.404 11.6013C225.404 6.61961 228.475 3.75342 234.003 3.75342C239.599 3.75342 242.601 6.61961 242.601 11.6013V27.7748C242.601 32.7565 239.531 35.6227 234.003 35.6227C228.407 35.6227 225.404 32.7565 225.404 27.7748V11.6013ZM231.068 28.116C231.068 30.368 232.229 31.1869 234.003 31.1869C235.777 31.1869 236.937 30.368 236.937 28.116V11.2601C236.937 9.0081 235.777 8.18919 234.003 8.18919C232.229 8.18919 231.068 9.0081 231.068 11.2601V28.116Z" fill="#8A178C"/>
<path d="M30.6411 22.5884L30.5729 30.2316L34.3262 32.5518V28.116L46.2687 35.8957V39.4443L34.1897 47.0192V43.3341L30.4364 45.5861L30.3682 53.2293L50.022 40.9456V35.2133L30.6411 22.5884Z" fill="url(#paint0_linear)"/>
<path d="M44.7678 36.4416V39.1031L35.7598 44.699V41.1504L41.5604 37.7382V37.67L35.828 34.1214V30.5728L44.7678 36.4416Z" fill="url(#paint1_linear)"/>
<path d="M34.1202 42.106L34.1884 34.4628L30.4351 32.2108V36.6466L18.4926 28.8669L18.5608 25.3183L30.5715 17.8116V21.4285L34.3249 19.2447V11.6016L14.8075 23.817L14.7393 29.5494L34.1202 42.106Z" fill="url(#paint2_linear)"/>
<path d="M20.0635 28.3208V25.6594L29.0033 20.0635V23.5438L23.2709 26.956V27.0242L29.0033 30.5046V33.985L20.0635 28.3208Z" fill="url(#paint3_linear)"/>
<path d="M32.4152 64.8305C14.5357 64.8305 0 50.2948 0 32.4152C0 14.5357 14.5357 0 32.4152 0C50.2948 0 64.8305 14.5357 64.8305 32.4152C64.8305 50.2948 50.2948 64.8305 32.4152 64.8305ZM32.4152 3.00267C16.1735 3.00267 3.00267 16.1735 3.00267 32.4152C3.00267 48.657 16.1735 61.8278 32.4152 61.8278C48.657 61.8278 61.8278 48.657 61.8278 32.4152C61.8278 16.1735 48.5887 3.00267 32.4152 3.00267Z" fill="url(#paint4_linear)"/>
<path d="M71.79 41.082H242.26V43.1293H71.79V41.082Z" fill="url(#paint5_linear)"/>
<path d="M77.1137 56.3685V57.7334C77.1137 59.3712 76.1583 60.2584 74.384 60.2584C72.6097 60.2584 71.6543 59.3712 71.6543 57.7334V52.5469C71.6543 50.9091 72.6097 50.022 74.384 50.022C76.1583 50.022 77.1137 50.9091 77.1137 52.5469V53.5023H75.4076V52.4105C75.4076 51.728 75.0664 51.4551 74.4522 51.4551C73.8381 51.4551 73.4968 51.728 73.4968 52.4105V57.8016C73.4968 58.4841 73.8381 58.757 74.4522 58.757C75.0664 58.757 75.4076 58.4841 75.4076 57.8016V56.3685H77.1137Z" fill="#8A178C"/>
<path d="M79.5693 52.4791C79.5693 50.8413 80.5247 49.9541 82.3673 49.9541C84.1416 49.9541 85.1652 50.8413 85.1652 52.4791V57.6655C85.1652 59.3033 84.2098 60.1905 82.3673 60.1905C80.593 60.1905 79.5693 59.3033 79.5693 57.6655V52.4791ZM81.4119 57.802C81.4119 58.4844 81.7531 58.7574 82.3673 58.7574C82.9815 58.7574 83.3227 58.4844 83.3227 57.802V52.4108C83.3227 51.7284 82.9815 51.4554 82.3673 51.4554C81.7531 51.4554 81.4119 51.7284 81.4119 52.4108V57.802Z" fill="#8A178C"/>
<path d="M91.6487 57.2563L92.8771 50.1591H95.4021V60.1907H93.696V52.957L92.3994 60.1225H90.7616L89.3967 53.0252V60.1225H87.8271V50.0908H90.3521L91.6487 57.2563Z" fill="#8A178C"/>
<path d="M102.158 57.2563L103.387 50.1591H105.912V60.1907H104.206V52.957L102.909 60.1225H101.203L99.8381 53.0252V60.1225H98.2686V50.0908H100.794L102.158 57.2563Z" fill="#8A178C"/>
<path d="M110.553 50.0908V57.8022C110.553 58.4847 110.894 58.7576 111.508 58.7576C112.122 58.7576 112.463 58.4847 112.463 57.8022V50.0908H114.169V57.734C114.169 59.3718 113.214 60.259 111.44 60.259C109.665 60.259 108.71 59.3718 108.71 57.734V50.0908H110.553Z" fill="#8A178C"/>
<path d="M118.537 52.8888V60.1225H116.899V50.0908H119.22L121.13 56.0962V50.0908H122.768V60.1225H120.789L118.537 52.8888Z" fill="#8A178C"/>
<path d="M125.497 50.0908H127.34V60.1225H125.497V50.0908Z" fill="#8A178C"/>
<path d="M129.66 50.0908H135.324V51.5239H133.413V60.1225H131.571V51.5239H129.66V50.0908Z" fill="#8A178C"/>
<path d="M139.282 56.7786L136.962 50.0908H138.873L140.238 54.6631L141.602 50.0908H143.377L141.056 56.7786V60.1225H139.214V56.7786H139.282Z" fill="#8A178C"/>
<path d="M151.566 54.5266H153.955V55.9597H151.566V60.1225H149.724V50.0908H154.569V51.5239H151.566V54.5266Z" fill="#FFB703"/>
<path d="M158.8 54.3219H161.325V55.755H158.8V58.6894H161.939V60.1225H156.957V50.0908H161.939V51.5239H158.8V54.3219Z" fill="#FFB703"/>
<path d="M167.057 50.0225C168.831 50.0225 169.787 50.9096 169.787 52.5474V52.8886H168.081V52.4792C168.081 51.7968 167.739 51.5238 167.193 51.5238C166.648 51.5238 166.306 51.7968 166.306 52.4792C166.306 54.5265 169.855 54.9359 169.855 57.8021C169.855 59.4399 168.9 60.3271 167.125 60.3271C165.351 60.3271 164.396 59.4399 164.396 57.8021V57.1879H166.102V57.9386C166.102 58.621 166.443 58.894 167.057 58.894C167.671 58.894 168.012 58.621 168.012 57.9386C168.012 55.8913 164.464 55.4819 164.464 52.6157C164.327 50.9096 165.283 50.0225 167.057 50.0225Z" fill="#FFB703"/>
<path d="M171.766 50.0908H177.43V51.5239H175.519V60.1225H173.676V51.5239H171.766V50.0908Z" fill="#FFB703"/>
<path d="M189.714 60.1225H187.871L187.53 58.2799H185.278L184.937 60.1225H183.23L185.073 50.0908H187.734L189.714 60.1225ZM185.551 56.9833H187.325L186.438 51.9334L185.551 56.9833Z" fill="#521E87"/>
<path d="M193.672 52.8888V60.1225H192.034V50.0908H194.354L196.265 56.0962V50.0908H197.903V60.1225H195.992L193.672 52.8888Z" fill="#521E87"/>
<path d="M200.633 50.0908H203.499C205.342 50.0908 206.229 50.978 206.229 52.5476V57.5975C206.229 59.2353 205.342 60.0542 203.499 60.0542H200.633V50.0908ZM202.475 51.5239V58.6894H203.499C204.113 58.6894 204.454 58.4164 204.454 57.734V52.5476C204.454 51.8651 204.113 51.5922 203.499 51.5922H202.475V51.5239Z" fill="#521E87"/>
<path d="M218.307 56.369V57.7339C218.307 59.3717 217.352 60.2589 215.577 60.2589C213.803 60.2589 212.848 59.3717 212.848 57.7339V52.5474C212.848 50.9096 213.803 50.0225 215.577 50.0225C217.352 50.0225 218.307 50.9096 218.307 52.5474V53.5028H216.601V52.411C216.601 51.7285 216.26 51.4556 215.646 51.4556C215.031 51.4556 214.69 51.7285 214.69 52.411V57.8021C214.69 58.4845 215.031 58.7575 215.646 58.7575C216.26 58.7575 216.601 58.4845 216.601 57.8021V56.369H218.307Z" fill="#521E87"/>
<path d="M220.764 52.4791C220.764 50.8413 221.719 49.9541 223.562 49.9541C225.404 49.9541 226.36 50.8413 226.36 52.4791V57.6655C226.36 59.3033 225.404 60.1905 223.562 60.1905C221.719 60.1905 220.764 59.3033 220.764 57.6655V52.4791ZM222.606 57.802C222.606 58.4844 222.947 58.7574 223.562 58.7574C224.176 58.7574 224.517 58.4844 224.517 57.802V52.4108C224.517 51.7284 224.176 51.4554 223.562 51.4554C222.947 51.4554 222.606 51.7284 222.606 52.4108V57.802Z" fill="#521E87"/>
<path d="M229.021 50.0908H231.888C233.73 50.0908 234.617 50.978 234.617 52.5476V57.5975C234.617 59.2353 233.73 60.0542 231.888 60.0542H229.021V50.0908ZM230.864 51.5239V58.6894H231.888C232.502 58.6894 232.843 58.4164 232.843 57.734V52.5476C232.843 51.8651 232.502 51.5922 231.888 51.5922H230.864V51.5239Z" fill="#521E87"/>
<path d="M239.121 54.3219H241.646V55.755H239.121V58.6894H242.26V60.1225H237.278V50.0908H242.26V51.5239H239.121V54.3219Z" fill="#521E87"/>
</g>
<defs>
<linearGradient id="paint0_linear" x1="41.6695" y1="46.7282" x2="28.4735" y2="23.8727" gradientUnits="userSpaceOnUse">
<stop stop-color="#521E87"/>
<stop offset="0.1455" stop-color="#5C1D88"/>
<stop offset="0.3882" stop-color="#751A8A"/>
<stop offset="0.5493" stop-color="#8A178C"/>
<stop offset="0.5628" stop-color="#8E1C87"/>
<stop offset="0.7755" stop-color="#C36E42"/>
<stop offset="0.9262" stop-color="#E4A017"/>
<stop offset="1" stop-color="#F1B406"/>
</linearGradient>
<linearGradient id="paint1_linear" x1="40.9179" y1="41.7585" x2="34.8595" y2="31.2651" gradientUnits="userSpaceOnUse">
<stop stop-color="#521E87"/>
<stop offset="0.1455" stop-color="#5C1D88"/>
<stop offset="0.3882" stop-color="#751A8A"/>
<stop offset="0.5493" stop-color="#8A178C"/>
<stop offset="0.5628" stop-color="#8E1C87"/>
<stop offset="0.7755" stop-color="#C36E42"/>
<stop offset="0.9262" stop-color="#E4A017"/>
<stop offset="1" stop-color="#F1B406"/>
</linearGradient>
<linearGradient id="paint2_linear" x1="36.2816" y1="40.8562" x2="23.1241" y2="18.0672" gradientUnits="userSpaceOnUse">
<stop stop-color="#521E87"/>
<stop offset="0.1455" stop-color="#5C1D88"/>
<stop offset="0.3882" stop-color="#751A8A"/>
<stop offset="0.5493" stop-color="#8A178C"/>
<stop offset="0.5628" stop-color="#8E1C87"/>
<stop offset="0.7755" stop-color="#C36E42"/>
<stop offset="0.9262" stop-color="#E4A017"/>
<stop offset="1" stop-color="#F1B406"/>
</linearGradient>
<linearGradient id="paint3_linear" x1="29.916" y1="33.4851" x2="23.8751" y2="23.0224" gradientUnits="userSpaceOnUse">
<stop stop-color="#521E87"/>
<stop offset="0.1455" stop-color="#5C1D88"/>
<stop offset="0.3882" stop-color="#751A8A"/>
<stop offset="0.5493" stop-color="#8A178C"/>
<stop offset="0.5628" stop-color="#8E1C87"/>
<stop offset="0.7755" stop-color="#C36E42"/>
<stop offset="0.9262" stop-color="#E4A017"/>
<stop offset="1" stop-color="#F1B406"/>
</linearGradient>
<linearGradient id="paint4_linear" x1="48.6049" y1="60.4636" x2="16.2059" y2="4.34692" gradientUnits="userSpaceOnUse">
<stop stop-color="#521E87"/>
<stop offset="0.1455" stop-color="#5C1D88"/>
<stop offset="0.3882" stop-color="#751A8A"/>
<stop offset="0.5493" stop-color="#8A178C"/>
<stop offset="0.5628" stop-color="#8E1C87"/>
<stop offset="0.7755" stop-color="#C36E42"/>
<stop offset="0.9262" stop-color="#E4A017"/>
<stop offset="1" stop-color="#F1B406"/>
</linearGradient>
<linearGradient id="paint5_linear" x1="71.7991" y1="42.1136" x2="242.228" y2="42.1136" gradientUnits="userSpaceOnUse">
<stop stop-color="#521E87"/>
<stop offset="0.1455" stop-color="#5C1D88"/>
<stop offset="0.3882" stop-color="#751A8A"/>
<stop offset="0.5493" stop-color="#8A178C"/>
<stop offset="0.5628" stop-color="#8E1C87"/>
<stop offset="0.7755" stop-color="#C36E42"/>
<stop offset="0.9262" stop-color="#E4A017"/>
<stop offset="1" stop-color="#F1B406"/>
</linearGradient>
<clipPath id="clip0">
<rect width="242.602" height="64.8305" fill="white"/>
</clipPath>
</defs>
</svg>
