<svg width="24" height="27" viewBox="0 0 24 27" fill="none" xmlns="http://www.w3.org/2000/svg">
<path d="M23.4545 26.591C23.3329 26.591 23.2124 26.5501 23.1136 26.4715L19.0353 23.2092C19.0664 23.3603 19.032 23.5179 18.9393 23.6428C18.8367 23.7819 18.6742 23.8637 18.5013 23.8637H3.64145C1.63364 23.8637 0 22.2301 0 20.2223V4.05063C0 2.04282 1.63364 0.40918 3.64145 0.40918H20.3585C22.3664 0.40918 24 2.04282 24 4.05063V26.0455C24 26.255 23.8795 26.4465 23.6913 26.537C23.616 26.573 23.5347 26.591 23.4545 26.591ZM18 21.1365C18.1211 21.1365 18.2411 21.1768 18.3409 21.2559L22.9091 24.9105V4.05063C22.9091 2.64445 21.7647 1.50009 20.3585 1.50009H3.64145C2.23527 1.50009 1.09091 2.64445 1.09091 4.05063V20.2223C1.09091 21.6285 2.23527 22.7728 3.64145 22.7728H17.7638L17.4791 21.8417C17.4087 21.6132 17.496 21.365 17.6945 21.2308C17.7862 21.1675 17.8936 21.1365 18 21.1365Z" fill="url(#paint0_linear)"/>
<path d="M17.5529 7.96962C17.5529 7.96962 15.9646 6.7418 14.0827 6.60107L13.918 6.93707C15.6166 7.34617 16.3922 7.93907 17.2049 8.66617C15.8058 7.95162 14.4193 7.21198 12.0002 7.21198C9.5811 7.21198 8.19401 7.95107 6.79546 8.66617C7.60819 7.93907 8.53655 7.27962 10.0824 6.93707L9.91765 6.60107C7.94419 6.79035 6.44746 7.96962 6.44746 7.96962C6.44746 7.96962 4.66874 10.5294 4.36328 15.5329C6.15946 17.5854 8.87801 17.598 8.87801 17.598L9.43983 16.8463C8.48092 16.5163 7.38728 15.924 6.44637 14.8489C7.57055 15.6922 9.26255 16.3762 11.9996 16.3762C14.7367 16.3762 16.4287 15.6922 17.5529 14.8489C16.612 15.924 15.5184 16.5169 14.5595 16.8463L15.1213 17.598C15.1213 17.598 17.8398 17.586 19.636 15.5329C19.3306 10.5294 17.5529 7.96962 17.5529 7.96962ZM9.86146 14.5429C9.18946 14.5429 8.63965 13.8589 8.63965 13.0156C8.63965 12.1723 9.18946 11.4883 9.86146 11.4883C10.5335 11.4883 11.0833 12.1723 11.0833 13.0156C11.0833 13.8589 10.5335 14.5429 9.86146 14.5429ZM14.1378 14.5429C13.4658 14.5429 12.916 13.8589 12.916 13.0156C12.916 12.1723 13.4658 11.4883 14.1378 11.4883C14.8098 11.4883 15.3596 12.1723 15.3596 13.0156C15.3596 13.8589 14.8098 14.5429 14.1378 14.5429Z" fill="url(#paint1_linear)"/>
<defs>
<linearGradient id="paint0_linear" x1="12" y1="0.40918" x2="12" y2="26.591" gradientUnits="userSpaceOnUse">
<stop stop-color="#1A6DFF"/>
<stop offset="1" stop-color="#C822FF"/>
</linearGradient>
<linearGradient id="paint1_linear" x1="11.9996" y1="17.5974" x2="11.9996" y2="6.60107" gradientUnits="userSpaceOnUse">
<stop stop-color="#E6ABFF"/>
<stop offset="1" stop-color="#6DC7FF"/>
</linearGradient>
</defs>
</svg>
