<svg width="32" height="32" viewBox="0 0 32 32" fill="none" xmlns="http://www.w3.org/2000/svg">
<g clip-path="url(#clip0)">
<path d="M0.707031 15.9401C0.707031 17.7991 1.04144 19.5798 1.65231 21.2262L15.9046 22.5478L30.1569 21.2262C30.7678 19.5798 31.1022 17.7991 31.1022 15.9401C31.1022 14.0812 30.7678 12.3004 30.1569 10.6541L15.9046 9.33252L1.65231 10.6541C1.04144 12.3004 0.707031 14.0812 0.707031 15.9401Z" fill="#FFDA44"/>
<path d="M30.1569 10.6542C28.0096 4.86698 22.4391 0.742676 15.9046 0.742676C9.37022 0.742676 3.79965 4.86698 1.65234 10.6542H30.1569Z" fill="#D80027"/>
<path d="M1.65234 21.2261C3.79965 27.0133 9.37022 31.1376 15.9046 31.1376C22.4391 31.1376 28.0096 27.0133 30.1569 21.2261H1.65234Z" fill="#D80027"/>
</g>
<defs>
<clipPath id="clip0">
<rect width="30.3951" height="30.3951" fill="white" transform="translate(0.707031 0.742188)"/>
</clipPath>
</defs>
</svg>
