<svg width="268" height="73" viewBox="0 0 268 73" fill="none" xmlns="http://www.w3.org/2000/svg">
<path d="M29.2061 25.9367L50.633 4.50977L94.8792 4.50977" stroke="#00D6F9" stroke-width="2.52334"/>
<path d="M120.853 17.4911L113.699 10.3374H52.675L5 58.0124H116.23L127.427 69.2093H191.015L203.11 57.1143H232.09L263.757 25.4472L255.801 17.4911H120.853Z" fill="#120C20"/>
<path d="M52.5494 10.3374H52.675M52.675 10.3374H113.699L120.853 17.4911H255.801L263.757 25.4472L232.09 57.1143H203.11L191.015 69.2093H127.427L116.23 58.0124H5L52.675 10.3374Z" stroke="#00D6F9" stroke-width="3.78501"/>
<path d="M52.5494 8.15465L52.5552 8.05908M52.5552 8.05908L113.699 8.15465L120.853 15.3084H255.801L263.757 23.2644L232.09 54.9315H203.11L191.015 67.0265H127.427L116.23 55.8297H5L52.5552 8.05908Z" stroke="#4930EE" stroke-width="3.78501"/>
<path d="M29.7549 21.8824L49.6373 2H92.9562" stroke="#4930EE" stroke-width="3.78501"/>
<path d="M264.914 46.5906L244.478 67.0262L217.03 67.0264" stroke="#4930EE" stroke-width="3.78501"/>
<path d="M266.809 50.4671L246.373 70.9027L218.924 70.9028" stroke="#00D6F9" stroke-width="2.52334"/>
<path d="M59.9307 29.9834H64.7623V32.8823H59.9307C56.7097 32.8823 55.0991 31.2718 55.0991 28.0507V24.1854C55.0991 20.9644 56.7097 19.3539 59.9307 19.3539H64.7623V22.2528H59.9307C58.6423 22.2528 57.9981 22.897 57.9981 24.1854V28.0507C57.9981 29.3392 58.6423 29.9834 59.9307 29.9834ZM70.5216 22.2528C73.7427 22.2528 75.3532 23.8633 75.3532 27.0844V28.0507C75.3532 31.2718 73.7427 32.8823 70.5216 32.8823C67.3005 32.8823 65.69 31.2718 65.69 28.0507V27.0844C65.69 23.8633 67.3005 22.2528 70.5216 22.2528ZM72.4542 27.0844C72.4542 25.796 71.81 25.1518 70.5216 25.1518C69.2332 25.1518 68.589 25.796 68.589 27.0844V28.0507C68.589 29.3392 69.2332 29.9834 70.5216 29.9834C71.81 29.9834 72.4542 29.3392 72.4542 28.0507V27.0844ZM80.1848 29.9061V32.8823H77.2858V21.2865L82.6006 28.2247L87.9153 21.2865V32.8823H85.0164V29.9061L82.6006 33.0563L80.1848 29.9061ZM89.848 28.0507V22.2528H92.7469V28.0507C92.7469 29.3392 93.3912 29.9834 94.6796 29.9834C95.968 29.9834 96.6122 29.3392 96.6122 28.0507V22.2528H99.5112V28.0507C99.5112 31.2718 97.9006 32.8823 94.6796 32.8823C91.4585 32.8823 89.848 31.2718 89.848 28.0507ZM104.343 27.6642V32.8823H101.444V19.3539L108.208 27.4709V22.2528H111.107V35.7813L104.343 27.6642ZM115.939 32.8823H113.04V22.2528H115.939V32.8823ZM124.635 27.0844C124.635 25.796 123.991 25.1518 122.703 25.1518H120.77V29.9834H122.703C123.991 29.9834 124.635 29.3392 124.635 28.0507V27.0844ZM122.703 22.2528C125.924 22.2528 127.534 23.8633 127.534 27.0844V28.0507C127.534 31.2718 125.924 32.8823 122.703 32.8823H117.871V22.2528H122.703ZM134.54 32.8823L132.791 28.0507L131.042 32.8823H128.018L132.791 19.3539L137.565 32.8823H134.54ZM145.276 27.0844C145.276 25.796 144.632 25.1518 143.343 25.1518H141.411V29.9834H143.343C144.632 29.9834 145.276 29.3392 145.276 28.0507V27.0844ZM143.343 22.2528C146.564 22.2528 148.175 23.8633 148.175 27.0844V28.0507C148.175 31.2718 146.564 32.8823 143.343 32.8823H138.512V22.2528H143.343ZM61.8634 42.0844C61.8634 40.796 61.2192 40.1518 59.9307 40.1518H57.9981V44.9834H59.9307C61.2192 44.9834 61.8634 44.3392 61.8634 43.0507V42.0844ZM59.9307 37.2528C63.1518 37.2528 64.7623 38.8633 64.7623 42.0844V43.0507C64.7623 46.2718 63.1518 47.8823 59.9307 47.8823H55.0991V37.2528H59.9307ZM75.3918 37.2528V40.1518H69.5939V41.1181H75.3918V44.017H69.5939V44.9834H73.4592V47.8823H66.695V37.2528H75.3918ZM81.1898 37.2528H86.0214C89.2424 37.2528 90.853 38.7023 90.853 41.6012C90.853 44.5002 89.2424 45.9497 86.0214 45.9497H84.0887V47.8823H81.1898V37.2528ZM84.0887 40.1518V43.0507H86.0214C87.3098 43.0507 87.954 42.5676 87.954 41.6012C87.954 40.6349 87.3098 40.1518 86.0214 40.1518H84.0887ZM95.4333 40.1518V47.8823H92.5343V37.2528H97.3659C100.587 37.2528 102.198 38.7023 102.198 41.6012C102.198 43.3535 101.727 44.5775 100.787 45.2733L102.198 47.8823H99.1053L96.4866 43.0507H97.3659C98.6544 43.0507 99.2986 42.5676 99.2986 41.6012C99.2986 40.6349 98.6544 40.1518 97.3659 40.1518H95.4333ZM108.884 37.2528C112.106 37.2528 113.716 38.8633 113.716 42.0844V43.0507C113.716 46.2718 112.106 47.8823 108.884 47.8823C105.663 47.8823 104.053 46.2718 104.053 43.0507V42.0844C104.053 38.8633 105.663 37.2528 108.884 37.2528ZM110.817 42.0844C110.817 40.796 110.173 40.1518 108.884 40.1518C107.596 40.1518 106.952 40.796 106.952 42.0844V43.0507C106.952 44.3392 107.596 44.9834 108.884 44.9834C110.173 44.9834 110.817 44.3392 110.817 43.0507V42.0844ZM120.364 37.2528H125.196V40.1518H120.364C119.076 40.1518 118.432 40.796 118.432 42.0844V43.0507C118.432 44.3392 119.076 44.9834 120.364 44.9834H122.297V44.017H120.364V41.1181H125.196V47.8823H120.364C117.143 47.8823 115.533 46.2718 115.533 43.0507V42.0844C115.533 38.8633 117.143 37.2528 120.364 37.2528ZM130.028 40.1518V47.8823H127.129V37.2528H131.96C135.181 37.2528 136.792 38.7023 136.792 41.6012C136.792 43.3535 136.322 44.5775 135.381 45.2733L136.792 47.8823H133.7L131.081 43.0507H131.96C133.249 43.0507 133.893 42.5676 133.893 41.6012C133.893 40.6349 133.249 40.1518 131.96 40.1518H130.028ZM144.068 47.8823L142.319 43.0507L140.57 47.8823H137.546L142.319 34.3539L147.093 47.8823H144.068ZM150.939 44.9061V47.8823H148.04V36.2865L153.354 43.2247L158.669 36.2865V47.8823H155.77V44.9061L153.354 48.0563L150.939 44.9061ZM166.178 47.8823L164.429 43.0507L162.679 47.8823H159.655L164.429 34.3539L169.202 47.8823H166.178ZM176.913 42.0844C176.913 40.796 176.269 40.1518 174.981 40.1518H173.048V44.9834H174.981C176.269 44.9834 176.913 44.3392 176.913 43.0507V42.0844ZM174.981 37.2528C178.202 37.2528 179.812 38.8633 179.812 42.0844V43.0507C179.812 46.2718 178.202 47.8823 174.981 47.8823H170.149V37.2528H174.981ZM186.461 37.2528C189.682 37.2528 191.292 38.8633 191.292 42.0844V43.0507C191.292 46.2718 189.682 47.8823 186.461 47.8823C183.24 47.8823 181.629 46.2718 181.629 43.0507V42.0844C181.629 38.8633 183.24 37.2528 186.461 37.2528ZM188.393 42.0844C188.393 40.796 187.749 40.1518 186.461 40.1518C185.172 40.1518 184.528 40.796 184.528 42.0844V43.0507C184.528 44.3392 185.172 44.9834 186.461 44.9834C187.749 44.9834 188.393 44.3392 188.393 43.0507V42.0844ZM196.124 40.1518V47.8823H193.225V37.2528H198.056C201.277 37.2528 202.888 38.7023 202.888 41.6012C202.888 43.3535 202.418 44.5775 201.477 45.2733L202.888 47.8823H199.796L197.177 43.0507H198.056C199.345 43.0507 199.989 42.5676 199.989 41.6012C199.989 40.6349 199.345 40.1518 198.056 40.1518H196.124ZM213.518 37.2528V40.1518H207.72V41.1181H213.518V44.017H207.72V44.9834H211.585V47.8823H204.821V37.2528H213.518ZM220.398 47.8823H217.016V44.9834H220.398C220.72 44.9834 220.881 44.8223 220.881 44.5002C220.881 44.1781 220.72 44.017 220.398 44.017H218.465C216.21 44.017 215.083 42.8897 215.083 40.6349C215.083 38.3802 216.21 37.2528 218.465 37.2528H223.78V40.1518H218.465C218.143 40.1518 217.982 40.3128 217.982 40.6349C217.982 40.957 218.143 41.1181 218.465 41.1181H220.398C222.652 41.1181 223.78 42.2455 223.78 44.5002C223.78 46.755 222.652 47.8823 220.398 47.8823Z" fill="#FFFCFF"/>
</svg>
