<svg width="67" height="72" viewBox="0 0 67 72" fill="none" xmlns="http://www.w3.org/2000/svg">
<path d="M11.1274 43.2944C9.9724 44.4494 9.0562 45.8206 8.43112 47.3297C7.80604 48.8387 7.48432 50.4562 7.48432 52.0896C7.48432 53.723 7.80604 55.3404 8.43112 56.8495C9.0562 58.3586 9.9724 59.7298 11.1274 60.8848C12.2824 62.0398 13.6536 62.956 15.1627 63.581C16.6717 64.2061 18.2892 64.5279 19.9226 64.5279C21.556 64.5279 23.1734 64.2061 24.6825 63.581C26.1916 62.956 27.5628 62.0398 28.7178 60.8848" stroke="url(#paint0_linear)" stroke-width="2.40741"/>
<path d="M22.2654 26.2747L45.3364 49.3457M22.2654 26.2747L41.2267 7.31341C42.1669 6.37325 43.6912 6.37325 44.6313 7.3134L48.5463 11.2284M22.2654 26.2747L4.40626 33.351C2.79634 33.9889 2.36628 36.0669 3.59077 37.2914L34.1511 67.8517C35.3672 69.0679 37.4295 68.6534 38.0812 67.0618L45.3364 49.3457M45.3364 49.3457L64.2977 30.3844C65.2379 29.4442 65.2379 27.92 64.2977 26.9798L57.5741 20.2562M57.5741 20.2562V4.40741C57.5741 3.07783 56.4962 2 55.1667 2H50.9537C49.6241 2 48.5463 3.07783 48.5463 4.40741V11.2284M57.5741 20.2562V26.2747C57.5741 27.6043 56.4962 28.6821 55.1667 28.6821H50.9537C49.6241 28.6821 48.5463 27.6043 48.5463 26.2747V11.2284" stroke="url(#paint1_linear)" stroke-width="2.40741"/>
<defs>
<linearGradient id="paint0_linear" x1="19.9226" y1="52.0896" x2="11.1274" y2="60.8848" gradientUnits="userSpaceOnUse">
<stop stop-color="#1A6DFF"/>
<stop offset="1" stop-color="#C822FF"/>
</linearGradient>
<linearGradient id="paint1_linear" x1="33.5" y1="2" x2="33.5" y2="70.4105" gradientUnits="userSpaceOnUse">
<stop stop-color="#1A6DFF"/>
<stop offset="1" stop-color="#C822FF"/>
</linearGradient>
</defs>
</svg>
