<svg width="67" height="72" viewBox="0 0 67 72" fill="none" xmlns="http://www.w3.org/2000/svg">
<path d="M55.8736 43.2944C57.0286 44.4494 57.9448 45.8206 58.5699 47.3297C59.1949 48.8387 59.5167 50.4562 59.5167 52.0896C59.5167 53.723 59.1949 55.3404 58.5699 56.8495C57.9448 58.3586 57.0286 59.7298 55.8736 60.8848C54.7186 62.0398 53.3474 62.956 51.8383 63.581C50.3292 64.2061 48.7118 64.5279 47.0784 64.5279C45.445 64.5279 43.8275 64.2061 42.3185 63.581C40.8094 62.956 39.4382 62.0398 38.2832 60.8848" stroke="url(#paint0_linear)" stroke-width="2.40741"/>
<path d="M44.7346 26.2747L21.6636 49.3457M44.7346 26.2747L25.7733 7.31341C24.8331 6.37325 23.3088 6.37325 22.3687 7.3134L18.4537 11.2284M44.7346 26.2747L62.5937 33.351C64.2037 33.9889 64.6337 36.0669 63.4092 37.2914L32.8489 67.8517C31.6328 69.0679 29.5705 68.6534 28.9188 67.0618L21.6636 49.3457M21.6636 49.3457L2.70229 30.3844C1.76214 29.4442 1.76214 27.92 2.70229 26.9798L9.42593 20.2562M9.42593 20.2562V4.40741C9.42593 3.07783 10.5038 2 11.8333 2H16.0463C17.3759 2 18.4537 3.07783 18.4537 4.40741V11.2284M9.42593 20.2562V26.2747C9.42593 27.6043 10.5038 28.6821 11.8333 28.6821H16.0463C17.3759 28.6821 18.4537 27.6043 18.4537 26.2747V11.2284" stroke="url(#paint1_linear)" stroke-width="2.40741"/>
<defs>
<linearGradient id="paint0_linear" x1="47.0784" y1="52.0896" x2="55.8736" y2="60.8848" gradientUnits="userSpaceOnUse">
<stop stop-color="#1A6DFF"/>
<stop offset="1" stop-color="#C822FF"/>
</linearGradient>
<linearGradient id="paint1_linear" x1="33.5" y1="2" x2="33.5" y2="70.4105" gradientUnits="userSpaceOnUse">
<stop stop-color="#1A6DFF"/>
<stop offset="1" stop-color="#C822FF"/>
</linearGradient>
</defs>
</svg>
