<svg width="31" height="32" viewBox="0 0 31 32" fill="none" xmlns="http://www.w3.org/2000/svg">
<g clip-path="url(#clip0)">
<path d="M15.2922 31.3265C23.7378 31.3265 30.5843 24.48 30.5843 16.0344C30.5843 7.58872 23.7378 0.742188 15.2922 0.742188C6.84654 0.742188 0 7.58872 0 16.0344C0 24.48 6.84654 31.3265 15.2922 31.3265Z" fill="#F0F0F0"/>
<path d="M30.5839 16.0341C30.5839 9.97131 27.0556 4.73279 21.9404 2.25928V29.8088C27.0556 27.3353 30.5839 22.0968 30.5839 16.0341Z" fill="#D80027"/>
<path d="M0 16.0341C0 22.0968 3.52825 27.3353 8.64342 29.8088V2.25928C3.52825 4.73279 0 9.97131 0 16.0341Z" fill="#6DA544"/>
<path d="M11.3027 16.0339C11.3027 18.2371 13.0888 20.0231 15.292 20.0231C17.4952 20.0231 19.2813 18.2371 19.2813 16.0339V14.7041H11.3027V16.0339Z" fill="#6DA544"/>
<path d="M20.6107 13.3752H16.6215C16.6215 12.6408 16.0261 12.0454 15.2917 12.0454C14.5573 12.0454 13.9619 12.6408 13.9619 13.3752H9.97266C9.97266 14.1096 10.6124 14.7049 11.3467 14.7049H11.3024C11.3024 15.4394 11.8977 16.0347 12.6322 16.0347C12.6322 16.7691 13.2275 17.3645 13.9619 17.3645H16.6215C17.3559 17.3645 17.9512 16.7691 17.9512 16.0347C18.6857 16.0347 19.281 15.4394 19.281 14.7049H19.2367C19.9711 14.7049 20.6107 14.1096 20.6107 13.3752Z" fill="#FF9811"/>
</g>
<defs>
<clipPath id="clip0">
<rect width="30.5843" height="30.5843" fill="white" transform="translate(0 0.742188)"/>
</clipPath>
</defs>
</svg>
