<svg width="32" height="32" viewBox="0 0 32 32" fill="none" xmlns="http://www.w3.org/2000/svg">
<g clip-path="url(#clip0)">
<path d="M16.2599 31.3265C24.7056 31.3265 31.5521 24.48 31.5521 16.0344C31.5521 7.58872 24.7056 0.742188 16.2599 0.742188C7.81431 0.742188 0.967773 7.58872 0.967773 16.0344C0.967773 24.48 7.81431 31.3265 16.2599 31.3265Z" fill="#F0F0F0"/>
<path d="M31.5533 16.0343C31.5533 9.45927 27.4033 3.85398 21.5801 1.69336V30.3754C27.4033 28.2146 31.5533 22.6095 31.5533 16.0343Z" fill="#D80027"/>
<path d="M0.967773 16.0343C0.967773 22.6095 5.11769 28.2146 10.941 30.3754V1.69336C5.11769 3.85398 0.967773 9.45927 0.967773 16.0343Z" fill="#D80027"/>
</g>
<defs>
<clipPath id="clip0">
<rect width="30.5843" height="30.5843" fill="white" transform="translate(0.967773 0.742188)"/>
</clipPath>
</defs>
</svg>
