<svg width="31" height="32" viewBox="0 0 31 32" fill="none" xmlns="http://www.w3.org/2000/svg">
<g clip-path="url(#clip0)">
<path d="M15.6496 31.327C24.0952 31.327 30.9418 24.4805 30.9418 16.0348C30.9418 7.58921 24.0952 0.742676 15.6496 0.742676C7.20396 0.742676 0.357422 7.58921 0.357422 16.0348C0.357422 24.4805 7.20396 31.327 15.6496 31.327Z" fill="#F0F0F0"/>
<path d="M0.883789 20.0234C2.29581 25.2624 6.42093 29.3876 11.6599 30.7996V20.0234H0.883789Z" fill="#D80027"/>
<path d="M11.6599 1.26904C6.42093 2.681 2.29575 6.80618 0.883789 12.0451H11.6599V1.26904H11.6599Z" fill="#0052B4"/>
<path d="M30.4148 12.0451C29.0028 6.80618 24.8776 2.681 19.6387 1.26904V12.0452H30.4148V12.0451Z" fill="#D80027"/>
<path d="M19.6387 30.7996C24.8776 29.3876 29.0028 25.2624 30.4148 20.0234H19.6387V30.7996Z" fill="#0052B4"/>
<path d="M19.6378 16.0342C19.6378 18.2375 17.8517 20.0235 15.6485 20.0235C13.4453 20.0235 11.6592 18.2375 11.6592 16.0342C11.6592 13.8309 15.6485 12.0449 15.6485 12.0449C15.6485 12.0449 19.6378 13.8309 19.6378 16.0342Z" fill="#496E2D"/>
<path d="M11.6592 16.0342C11.6592 13.8309 13.4453 12.0449 15.6485 12.0449C17.8517 12.0449 19.6378 13.8309 19.6378 16.0342" fill="#0052B4"/>
<path d="M13.4033 14.0396V16.5328C13.4033 17.7721 14.4079 18.7768 15.6473 18.7768C16.8866 18.7768 17.8912 17.7721 17.8912 16.5328V14.0396H13.4033Z" fill="#D80027"/>
</g>
<defs>
<clipPath id="clip0">
<rect width="30.5843" height="30.5843" fill="white" transform="translate(0.357422 0.742676)"/>
</clipPath>
</defs>
</svg>
