<svg width="31" height="32" viewBox="0 0 31 32" fill="none" xmlns="http://www.w3.org/2000/svg">
<g clip-path="url(#clip0)">
<path d="M29.4791 22.6834C30.4512 20.673 30.9964 18.4176 30.9964 16.0347C30.9964 13.6518 30.4512 11.3964 29.4791 9.38591L15.7043 8.05615L1.9295 9.38591C0.957311 11.3964 0.412109 13.6518 0.412109 16.0347C0.412109 18.4176 0.957311 20.673 1.9295 22.6834L15.7043 24.0132L29.4791 22.6834Z" fill="#0052B4"/>
<path d="M15.7035 31.3265C21.7662 31.3265 27.0048 27.7983 29.4783 22.6831H1.92871C4.40222 27.7983 9.64074 31.3265 15.7035 31.3265Z" fill="#D80027"/>
<path d="M26.8959 19.0363L26.0882 19.6675L26.4388 20.6305L25.5889 20.0574L24.7812 20.6885L25.0636 19.7032L24.2139 19.1299L25.2383 19.0942L25.5209 18.1089L25.8716 19.0721L26.8959 19.0363Z" fill="#F0F0F0"/>
<path d="M24.828 15.4541L24.2849 16.3234L24.9439 17.1085L23.9492 16.8608L23.406 17.7299L23.3344 16.7074L22.3398 16.4593L23.2903 16.0753L23.2189 15.0527L23.8777 15.8381L24.828 15.4541Z" fill="#F0F0F0"/>
<path d="M21.6594 12.7949L21.4463 13.7976L22.334 14.3101L21.3146 14.4176L21.1015 15.4199L20.6845 14.4836L19.665 14.5906L20.4269 13.9047L20.01 12.9685L20.8977 13.4809L21.6594 12.7949Z" fill="#F0F0F0"/>
<path d="M17.7729 11.3804L17.9157 12.3954L18.925 12.5733L18.0038 13.0229L18.1465 14.0379L17.4345 13.3006L16.513 13.7499L16.9943 12.8447L16.2822 12.1075L17.2917 12.2854L17.7729 11.3804Z" fill="#F0F0F0"/>
<path d="M13.6365 11.3804L14.1178 12.2854L15.1271 12.1073L14.4152 12.8449L14.8962 13.75L13.975 13.3006L13.2628 14.0377L13.4057 13.0229L12.4844 12.5736L13.4938 12.3954L13.6365 11.3804Z" fill="#F0F0F0"/>
<path d="M9.74869 12.7949L10.5105 13.4809L11.398 12.9685L10.9813 13.9051L11.7429 14.5909L10.7236 14.4836L10.3065 15.4199L10.0937 14.4174L9.07422 14.3103L9.96188 13.7977L9.74869 12.7949Z" fill="#F0F0F0"/>
<path d="M6.57848 15.4539L7.52904 15.8379L8.18768 15.0527L8.11642 16.0755L9.06668 16.4595L8.07215 16.7073L8.00053 17.7297L7.45754 16.8606L6.46289 17.1085L7.12177 16.3232L6.57848 15.4539Z" fill="#F0F0F0"/>
<path d="M4.51172 19.0362L5.53629 19.0719L5.8867 18.1089L6.16955 19.0943L7.19382 19.1301L6.34403 19.7033L6.62646 20.6885L5.81884 20.0575L4.96899 20.6305L5.31958 19.6674L4.51172 19.0362Z" fill="#F0F0F0"/>
<path d="M29.4783 9.3861C27.0048 4.27093 21.7662 0.742676 15.7035 0.742676C9.64074 0.742676 4.40222 4.27093 1.92871 9.3861H29.4783Z" fill="#FFDA44"/>
</g>
<defs>
<clipPath id="clip0">
<rect width="30.5843" height="30.5843" fill="white" transform="translate(0.412109 0.742188)"/>
</clipPath>
</defs>
</svg>
