<svg width="24" height="19" viewBox="0 0 24 19" fill="none" xmlns="http://www.w3.org/2000/svg">
<path d="M12 18.1907C9.36891 18.1907 6.73782 18.11 4.01362 17.949C1.96106 17.8278 0.30535 16.1936 0.161753 14.1472C-0.0538488 11.0634 -0.0538487 7.93616 0.161339 4.85276C0.30535 2.8064 1.96106 1.1718 4.01362 1.05055C9.46243 0.728593 14.5384 0.728593 19.9864 1.05055C22.0389 1.1718 23.6946 2.80599 23.8382 4.85234C24.0538 7.93616 24.0539 11.0634 23.8387 14.1468C23.6947 16.1932 22.0389 17.8278 19.9864 17.949C17.2622 18.11 14.6311 18.1907 12 18.1907ZM19.938 17.123L19.9624 17.536L19.938 17.123C21.5763 17.0262 22.898 15.7218 23.0131 14.0893C23.2262 11.0444 23.2262 7.95602 23.0127 4.91028C22.8985 3.27816 21.5763 1.97379 19.938 1.87695C14.5218 1.55707 9.47857 1.55707 4.06245 1.87695C2.42413 1.97379 1.10237 3.27816 0.987331 4.91069C0.774212 7.95561 0.774212 11.044 0.987745 14.0897C1.10196 15.7218 2.42413 17.0262 4.06245 17.123C9.47816 17.4429 14.5218 17.4429 19.938 17.123Z" fill="url(#paint0_linear)"/>
<path d="M9.10352 12.7441V6.25537L14.6653 9.49975L9.10352 12.7441Z" fill="url(#paint1_linear)"/>
<path d="M8.68945 13.4648V5.53516L15.4865 9.5L8.68945 13.4648ZM9.5171 6.97609V12.0235L13.844 9.5L9.5171 6.97609Z" fill="url(#paint2_linear)"/>
<defs>
<linearGradient id="paint0_linear" x1="12" y1="0.395879" x2="12" y2="18.9149" gradientUnits="userSpaceOnUse">
<stop stop-color="#1A6DFF"/>
<stop offset="1" stop-color="#C822FF"/>
</linearGradient>
<linearGradient id="paint1_linear" x1="11.8844" y1="6.29262" x2="11.8844" y2="12.5008" gradientUnits="userSpaceOnUse">
<stop stop-color="#6DC7FF"/>
<stop offset="1" stop-color="#E6ABFF"/>
</linearGradient>
<linearGradient id="paint2_linear" x1="12.0878" y1="0.395884" x2="12.0878" y2="18.9149" gradientUnits="userSpaceOnUse">
<stop stop-color="#1A6DFF"/>
<stop offset="1" stop-color="#C822FF"/>
</linearGradient>
</defs>
</svg>
